 <svg
    width="20.322"
    height="19.385"
    version="1.1"
    viewBox="0 0 5.3768 5.1289"
    xmlns="http://www.w3.org/2000/svg"
  >
    <g transform="translate(-.63034 -.51267)">
      <g transform="matrix(.75378 0 0 .76867 -.40528 -.40322)">
        <path
          d="m1.7708 1.9716c7.1552-2.2783 8.8478 6.1937 1.999 5.4493-0.49608 0.056159-1.1832 0.10187-1.5882-0.29209-0.35333-0.45042-0.070993-1.346 0.83062-1.2414 0.68448 0.05959 1.0878 0.58462 1.5061 0.50202l0.045639-2.3002"
          fill="none"
          stroke="#256e57"
          stroke-linecap="round"
          stroke-linejoin="round"
          stroke-width=".79375"
        />
        <g fill="#196c69">
          <ellipse
            transform="matrix(.94127 .33764 -.58414 .81165 0 0)"
            cx="4.7344"
            cy="2.8943"
            rx="1.3057"
            ry=".41851"
            style="paint-order: markers fill stroke"
          />
          <ellipse
            transform="matrix(-.8864 .46293 -.15022 -.98865 0 0)"
            cx="-5.3598"
            cy="-5.9857"
            rx=".71199"
            ry=".28539"
            style="paint-order: markers fill stroke"
          />
          <ellipse
            transform="matrix(.19786 .98023 -.99079 -.1354 0 0)"
            cx="2.3444"
            cy="-3.7235"
            rx=".81681"
            ry=".36034"
            style="paint-order: markers fill stroke"
          />
        </g>
      </g>
    </g>
  </svg>